<svg width="21" height="16" viewBox="0 0 21 16" fill="none" xmlns="http://www.w3.org/2000/svg">
<g clip-path="url(#clip0_1_4721)">
<path d="M0 0.5H21V15.5H0V0.5Z" fill="#012169"/>
<path d="M2.46094 0.5L10.4672 6.15625L18.4406 0.5H21V2.4375L13.125 8.03125L21 13.5938V15.5H18.375L10.5 9.90625L2.65781 15.5H0V13.625L7.84219 8.0625L0 2.5V0.5H2.46094Z" fill="white"/>
<path d="M13.9125 9.28125L21 14.25V15.5L12.1078 9.28125H13.9125ZM7.875 9.90625L8.07187 11L1.77187 15.5H0L7.875 9.90625ZM21 0.5V0.59375L12.8297 6.46875L12.8953 5.09375L19.3594 0.5H21ZM0 0.5L7.84219 6H5.87344L0 1.8125V0.5Z" fill="#C8102E"/>
<path d="M7.90781 0.5V15.5H13.1578V0.5H7.90781ZM0 5.5V10.5H21V5.5H0Z" fill="white"/>
<path d="M0 6.53125V9.53125H21V6.53125H0ZM8.95781 0.5V15.5H12.1078V0.5H8.95781Z" fill="#C8102E"/>
</g>
<defs>
<clipPath id="clip0_1_4721">
<rect y="0.5" width="21" height="15" rx="3" fill="white"/>
</clipPath>
</defs>
</svg>
