<svg width="21" height="16" viewBox="0 0 21 16" fill="none" xmlns="http://www.w3.org/2000/svg">
<g clip-path="url(#clip0_1_4965)">
<path d="M0 10.5H21V15.5H0V10.5Z" fill="#1EB53A"/>
<path d="M0 0.5H21V5.5H0V0.5Z" fill="#0099B5"/>
<path d="M0 5.29999H21V10.7H0V5.29999Z" fill="#CE1126"/>
<path d="M0 5.59998H21V10.4H0V5.59998Z" fill="#F1CC06"/>
<path d="M4.41002 4.69998C5.45384 4.69998 6.30002 3.89409 6.30002 2.89998C6.30002 1.90586 5.45384 1.09998 4.41002 1.09998C3.3662 1.09998 2.52002 1.90586 2.52002 2.89998C2.52002 3.89409 3.3662 4.69998 4.41002 4.69998Z" fill="white"/>
<path d="M5.04002 4.69998C6.08384 4.69998 6.93002 3.89409 6.93002 2.89998C6.93002 1.90586 6.08384 1.09998 5.04002 1.09998C3.99621 1.09998 3.15002 1.90586 3.15002 2.89998C3.15002 3.89409 3.99621 4.69998 5.04002 4.69998Z" fill="#0099B5"/>
<path d="M8.56745 3.43964L8.44775 3.78164L8.63045 3.84164" fill="white"/>
<path d="M8.56743 3.43958L8.68713 3.78158L8.50443 3.84158" fill="white"/>
<path d="M8.92624 3.69013L8.54811 3.68322L8.54695 3.8696" fill="white"/>
<path d="M8.92557 3.68914L8.62404 3.9027L8.50597 3.75258" fill="white"/>
<path d="M8.20932 3.68926L8.51085 3.90283L8.62892 3.7527" fill="white"/>
<path d="M8.20877 3.69007L8.5869 3.68316L8.58806 3.86954" fill="white"/>
<path d="M8.79059 4.09172L8.67415 3.7478L8.49054 3.80013" fill="white"/>
<path d="M8.79022 4.09187L8.48202 3.88036L8.59113 3.73058" fill="white"/>
<path d="M8.34548 4.09006L8.65319 3.88189L8.54102 3.73024" fill="white"/>
<path d="M8.34616 4.0903L8.45858 3.74681L8.64445 3.80168" fill="white"/>
<path d="M8.56758 2.00006L8.44788 2.34206L8.63058 2.40206" fill="white"/>
<path d="M8.56756 2.00018L8.68726 2.34218L8.50456 2.40218" fill="white"/>
<path d="M8.92636 2.25074L8.54824 2.24383L8.54707 2.43021" fill="white"/>
<path d="M8.92569 2.24993L8.62416 2.4635L8.50609 2.31337" fill="white"/>
<path d="M8.20932 2.24975L8.51085 2.46331L8.62892 2.31319" fill="white"/>
<path d="M8.20877 2.25049L8.5869 2.24359L8.58806 2.42997" fill="white"/>
<path d="M8.79059 2.6519L8.67415 2.30798L8.49054 2.36031" fill="white"/>
<path d="M8.79022 2.65199L8.48202 2.44048L8.59113 2.2907" fill="white"/>
<path d="M8.3456 2.65055L8.65331 2.44238L8.54114 2.29073" fill="white"/>
<path d="M8.34604 2.65097L8.45846 2.30748L8.64432 2.36235" fill="white"/>
<path d="M5.54341 3.43958L5.42371 3.78158L5.60641 3.84158" fill="white"/>
<path d="M5.54339 3.43951L5.66309 3.78151L5.48039 3.84151" fill="white"/>
<path d="M5.90219 3.69007L5.52407 3.68316L5.5229 3.86954" fill="white"/>
<path d="M5.90152 3.68908L5.59999 3.90264L5.48192 3.75252" fill="white"/>
<path d="M5.18527 3.6892L5.4868 3.90277L5.60487 3.75264" fill="white"/>
<path d="M5.18472 3.69001L5.56285 3.6831L5.56401 3.86948" fill="white"/>
<path d="M5.76654 4.09166L5.6501 3.74774L5.46649 3.80007" fill="white"/>
<path d="M5.76605 4.09181L5.45785 3.8803L5.56696 3.73052" fill="white"/>
<path d="M5.32131 4.09L5.62902 3.88183L5.51685 3.73018" fill="white"/>
<path d="M5.32199 4.09024L5.43441 3.74675L5.62028 3.80162" fill="white"/>
<path d="M7.05537 3.43958L6.93567 3.78158L7.11837 3.84158" fill="white"/>
<path d="M7.05535 3.43951L7.17505 3.78151L6.99235 3.84151" fill="white"/>
<path d="M7.41415 3.69007L7.03603 3.68316L7.03487 3.86954" fill="white"/>
<path d="M7.41361 3.68908L7.11208 3.90264L6.99401 3.75252" fill="white"/>
<path d="M6.69711 3.6892L6.99864 3.90277L7.11671 3.75264" fill="white"/>
<path d="M6.69657 3.69001L7.07469 3.6831L7.07585 3.86948" fill="white"/>
<path d="M7.2785 4.09166L7.16206 3.74774L6.97846 3.80007" fill="white"/>
<path d="M7.27801 4.09181L6.96982 3.8803L7.07892 3.73052" fill="white"/>
<path d="M6.8334 4.09L7.1411 3.88183L7.02894 3.73018" fill="white"/>
<path d="M6.83396 4.09024L6.94638 3.74675L7.13224 3.80162" fill="white"/>
<path d="M7.05537 2L6.93567 2.342L7.11837 2.402" fill="white"/>
<path d="M7.05535 2.00012L7.17505 2.34212L6.99235 2.40212" fill="white"/>
<path d="M7.41427 2.25068L7.03615 2.24377L7.03499 2.43015" fill="white"/>
<path d="M7.41361 2.24987L7.11208 2.46343L6.99401 2.31331" fill="white"/>
<path d="M6.69723 2.24969L6.99876 2.46325L7.11683 2.31312" fill="white"/>
<path d="M6.69657 2.25043L7.07469 2.24352L7.07585 2.42991" fill="white"/>
<path d="M7.2785 2.65184L7.16206 2.30792L6.97846 2.36025" fill="white"/>
<path d="M7.27801 2.65193L6.96982 2.44042L7.07892 2.29064" fill="white"/>
<path d="M6.8334 2.65049L7.1411 2.44232L7.02894 2.29067" fill="white"/>
<path d="M6.83396 2.65067L6.94638 2.30717L7.13224 2.36205" fill="white"/>
</g>
<defs>
<clipPath id="clip0_1_4965">
<rect y="0.5" width="21" height="15" rx="3" fill="white"/>
</clipPath>
</defs>
</svg>
