<svg width="21" height="16" viewBox="0 0 21 16" fill="none" xmlns="http://www.w3.org/2000/svg">
<g clip-path="url(#clip0_1_4735)">
<path d="M0 10.5H21V15.5H0V10.5Z" fill="#1EB53A"/>
<path d="M0 0.5H21V5.5H0V0.5Z" fill="#0099B5"/>
<path d="M0 5.29999H21V10.7H0V5.29999Z" fill="#CE1126"/>
<path d="M0 5.59998H21V10.4H0V5.59998Z" fill="white"/>
<path d="M4.41002 4.69998C5.45384 4.69998 6.30002 3.89409 6.30002 2.89998C6.30002 1.90586 5.45384 1.09998 4.41002 1.09998C3.3662 1.09998 2.52002 1.90586 2.52002 2.89998C2.52002 3.89409 3.3662 4.69998 4.41002 4.69998Z" fill="white"/>
<path d="M5.04002 4.69998C6.08384 4.69998 6.93002 3.89409 6.93002 2.89998C6.93002 1.90586 6.08384 1.09998 5.04002 1.09998C3.99621 1.09998 3.15002 1.90586 3.15002 2.89998C3.15002 3.89409 3.99621 4.69998 5.04002 4.69998Z" fill="#0099B5"/>
<path d="M8.56745 3.98071L8.44775 4.32271L8.63045 4.38271" fill="white"/>
<path d="M8.56743 3.98065L8.68713 4.32265L8.50443 4.38265" fill="white"/>
<path d="M8.92624 4.23121L8.54811 4.2243L8.54695 4.41068" fill="white"/>
<path d="M8.92557 4.23022L8.62404 4.44378L8.50597 4.29365" fill="white"/>
<path d="M8.20932 4.2304L8.51085 4.44396L8.62892 4.29384" fill="white"/>
<path d="M8.20877 4.23121L8.5869 4.2243L8.58806 4.41068" fill="white"/>
<path d="M8.79059 4.63255L8.67415 4.28863L8.49054 4.34096" fill="white"/>
<path d="M8.79022 4.6327L8.48202 4.42119L8.59113 4.27141" fill="white"/>
<path d="M8.34548 4.63126L8.65319 4.42309L8.54102 4.27144" fill="white"/>
<path d="M8.34616 4.6315L8.45858 4.28801L8.64445 4.34288" fill="white"/>
<path d="M8.56758 2.54089L8.44788 2.88289L8.63058 2.94289" fill="white"/>
<path d="M8.56756 2.54102L8.68726 2.88302L8.50456 2.94302" fill="white"/>
<path d="M8.92636 2.79157L8.54824 2.78466L8.54707 2.97104" fill="white"/>
<path d="M8.92569 2.79077L8.62416 3.00433L8.50609 2.8542" fill="white"/>
<path d="M8.20932 2.79058L8.51085 3.00414L8.62892 2.85402" fill="white"/>
<path d="M8.20877 2.79133L8.5869 2.78442L8.58806 2.9708" fill="white"/>
<path d="M8.79059 3.19273L8.67415 2.84881L8.49054 2.90114" fill="white"/>
<path d="M8.79022 3.19282L8.48202 2.98131L8.59113 2.83153" fill="white"/>
<path d="M8.3456 3.19138L8.65331 2.98321L8.54114 2.83156" fill="white"/>
<path d="M8.34604 3.1918L8.45846 2.84831L8.64432 2.90319" fill="white"/>
<path d="M8.56745 1.10077L8.44775 1.44277L8.63045 1.50277" fill="white"/>
<path d="M8.56743 1.10083L8.68713 1.44283L8.50443 1.50283" fill="white"/>
<path d="M8.92624 1.35139L8.54811 1.34448L8.54695 1.53086" fill="white"/>
<path d="M8.92557 1.35052L8.62404 1.56408L8.50597 1.41395" fill="white"/>
<path d="M8.20932 1.35046L8.51085 1.56402L8.62892 1.41389" fill="white"/>
<path d="M8.20877 1.35139L8.5869 1.34448L8.58806 1.53086" fill="white"/>
<path d="M8.79059 1.75261L8.67415 1.40869L8.49054 1.46102" fill="white"/>
<path d="M8.79022 1.75288L8.48202 1.54137L8.59113 1.39159" fill="white"/>
<path d="M8.3456 1.75144L8.65331 1.54327L8.54114 1.39162" fill="white"/>
<path d="M8.34604 1.75174L8.45846 1.40824L8.64432 1.46312" fill="white"/>
<path d="M10.0794 3.98071L9.95972 4.32271L10.1424 4.38271" fill="white"/>
<path d="M10.0794 3.98065L10.1991 4.32265L10.0164 4.38265" fill="white"/>
<path d="M10.4382 4.23121L10.0601 4.2243L10.0589 4.41068" fill="white"/>
<path d="M10.4377 4.23022L10.1361 4.44378L10.0181 4.29365" fill="white"/>
<path d="M9.72116 4.2304L10.0227 4.44396L10.1408 4.29384" fill="white"/>
<path d="M9.72061 4.23121L10.0987 4.2243L10.0999 4.41068" fill="white"/>
<path d="M10.3025 4.63255L10.1861 4.28863L10.0025 4.34096" fill="white"/>
<path d="M10.3021 4.6327L9.99386 4.42119L10.103 4.27141" fill="white"/>
<path d="M9.85744 4.63126L10.1651 4.42309L10.053 4.27144" fill="white"/>
<path d="M9.858 4.6315L9.97043 4.28801L10.1563 4.34288" fill="white"/>
<path d="M10.0794 2.54089L9.95972 2.88289L10.1424 2.94289" fill="white"/>
<path d="M10.0794 2.54102L10.1991 2.88302L10.0164 2.94302" fill="white"/>
<path d="M10.4383 2.79157L10.0602 2.78466L10.059 2.97104" fill="white"/>
<path d="M10.4377 2.79077L10.1361 3.00433L10.0181 2.8542" fill="white"/>
<path d="M9.72128 2.79058L10.0228 3.00414L10.1409 2.85402" fill="white"/>
<path d="M9.72061 2.79133L10.0987 2.78442L10.0999 2.9708" fill="white"/>
<path d="M10.3025 3.19273L10.1861 2.84881L10.0025 2.90114" fill="white"/>
<path d="M10.3021 3.19282L9.99386 2.98131L10.103 2.83153" fill="white"/>
<path d="M9.85744 3.19138L10.1651 2.98321L10.053 2.83156" fill="white"/>
<path d="M9.858 3.19156L9.97043 2.84806L10.1563 2.90294" fill="white"/>
<path d="M10.0795 1.10077L9.95984 1.44277L10.1425 1.50277" fill="white"/>
<path d="M10.0795 1.10083L10.1992 1.44283L10.0165 1.50283" fill="white"/>
<path d="M10.4383 1.35139L10.0602 1.34448L10.059 1.53086" fill="white"/>
<path d="M10.4378 1.35052L10.1362 1.56408L10.0182 1.41395" fill="white"/>
<path d="M9.72128 1.35046L10.0228 1.56402L10.1409 1.41389" fill="white"/>
<path d="M9.72061 1.35139L10.0987 1.34448L10.0999 1.53086" fill="white"/>
<path d="M10.3025 1.75261L10.1861 1.40869L10.0025 1.46102" fill="white"/>
<path d="M10.3021 1.75288L9.99386 1.54137L10.103 1.39159" fill="white"/>
<path d="M9.85744 1.75144L10.1651 1.54327L10.053 1.39162" fill="white"/>
<path d="M9.858 1.7518L9.97043 1.40831L10.1563 1.46318" fill="white"/>
<path d="M11.5914 3.98071L11.4717 4.32271L11.6544 4.38271" fill="white"/>
<path d="M11.5914 3.98065L11.7111 4.32265L11.5284 4.38265" fill="white"/>
<path d="M11.9502 4.23121L11.572 4.2243L11.5709 4.41068" fill="white"/>
<path d="M11.9495 4.23022L11.648 4.44378L11.5299 4.29365" fill="white"/>
<path d="M11.2332 4.2304L11.5348 4.44396L11.6528 4.29384" fill="white"/>
<path d="M11.2327 4.23121L11.6108 4.2243L11.612 4.41068" fill="white"/>
<path d="M11.8145 4.63255L11.6981 4.28863L11.5145 4.34096" fill="white"/>
<path d="M11.814 4.6327L11.5058 4.42119L11.6149 4.27141" fill="white"/>
<path d="M11.3693 4.63126L11.677 4.42309L11.5648 4.27144" fill="white"/>
<path d="M11.37 4.6315L11.4824 4.28801L11.6683 4.34288" fill="white"/>
<path d="M11.5915 2.54089L11.4718 2.88289L11.6545 2.94289" fill="white"/>
<path d="M11.5915 2.54102L11.7112 2.88302L11.5285 2.94302" fill="white"/>
<path d="M11.9503 2.79157L11.5722 2.78466L11.571 2.97104" fill="white"/>
<path d="M11.9496 2.79077L11.6481 3.00433L11.53 2.8542" fill="white"/>
<path d="M11.2332 2.79058L11.5348 3.00414L11.6528 2.85402" fill="white"/>
<path d="M11.2327 2.79133L11.6108 2.78442L11.612 2.9708" fill="white"/>
<path d="M11.8145 3.19273L11.6981 2.84881L11.5145 2.90114" fill="white"/>
<path d="M11.814 3.19282L11.5058 2.98131L11.6149 2.83153" fill="white"/>
<path d="M11.3693 3.19138L11.677 2.98321L11.5648 2.83156" fill="white"/>
<path d="M11.37 3.19156L11.4824 2.84806L11.6683 2.90294" fill="white"/>
<path d="M11.5914 1.10077L11.4717 1.44277L11.6544 1.50277" fill="white"/>
<path d="M11.5914 1.10083L11.7111 1.44283L11.5284 1.50283" fill="white"/>
<path d="M11.9502 1.35139L11.572 1.34448L11.5709 1.53086" fill="white"/>
<path d="M11.9495 1.35052L11.648 1.56408L11.5299 1.41395" fill="white"/>
<path d="M11.2332 1.35046L11.5348 1.56402L11.6528 1.41389" fill="white"/>
<path d="M11.2327 1.35139L11.6108 1.34448L11.612 1.53086" fill="white"/>
<path d="M11.8145 1.75261L11.6981 1.40869L11.5145 1.46102" fill="white"/>
<path d="M11.814 1.75288L11.5058 1.54137L11.6149 1.39159" fill="white"/>
<path d="M11.3694 1.75144L11.6771 1.54327L11.5649 1.39162" fill="white"/>
<path d="M11.3698 1.75174L11.4823 1.40824L11.6681 1.46312" fill="white"/>
<path d="M5.54341 3.98065L5.42371 4.32265L5.60641 4.38265" fill="white"/>
<path d="M5.54339 3.98059L5.66309 4.32259L5.48039 4.38259" fill="white"/>
<path d="M5.90219 4.23115L5.52407 4.22424L5.5229 4.41062" fill="white"/>
<path d="M5.90152 4.23016L5.59999 4.44372L5.48192 4.29359" fill="white"/>
<path d="M5.18527 4.23034L5.4868 4.4439L5.60487 4.29378" fill="white"/>
<path d="M5.18472 4.23115L5.56285 4.22424L5.56401 4.41062" fill="white"/>
<path d="M5.76654 4.63249L5.6501 4.28857L5.46649 4.3409" fill="white"/>
<path d="M5.76605 4.63264L5.45785 4.42113L5.56696 4.27135" fill="white"/>
<path d="M5.32131 4.6312L5.62902 4.42303L5.51685 4.27138" fill="white"/>
<path d="M5.32199 4.63144L5.43441 4.28794L5.62028 4.34282" fill="white"/>
<path d="M7.05537 3.98065L6.93567 4.32265L7.11837 4.38265" fill="white"/>
<path d="M7.05535 3.98059L7.17505 4.32259L6.99235 4.38259" fill="white"/>
<path d="M7.41415 4.23115L7.03603 4.22424L7.03487 4.41062" fill="white"/>
<path d="M7.41361 4.23016L7.11208 4.44372L6.99401 4.29359" fill="white"/>
<path d="M6.69711 4.23034L6.99864 4.4439L7.11671 4.29378" fill="white"/>
<path d="M6.69657 4.23115L7.07469 4.22424L7.07585 4.41062" fill="white"/>
<path d="M7.2785 4.63249L7.16206 4.28857L6.97846 4.3409" fill="white"/>
<path d="M7.27801 4.63264L6.96982 4.42113L7.07892 4.27135" fill="white"/>
<path d="M6.8334 4.6312L7.1411 4.42303L7.02894 4.27138" fill="white"/>
<path d="M6.83396 4.63144L6.94638 4.28794L7.13224 4.34282" fill="white"/>
<path d="M7.05537 2.54083L6.93567 2.88283L7.11837 2.94283" fill="white"/>
<path d="M7.05535 2.54095L7.17505 2.88295L6.99235 2.94295" fill="white"/>
<path d="M7.41427 2.79151L7.03615 2.7846L7.03499 2.97098" fill="white"/>
<path d="M7.41361 2.7907L7.11208 3.00427L6.99401 2.85414" fill="white"/>
<path d="M6.69723 2.79052L6.99876 3.00408L7.11683 2.85396" fill="white"/>
<path d="M6.69657 2.79127L7.07469 2.78436L7.07585 2.97074" fill="white"/>
<path d="M7.2785 3.19267L7.16206 2.84875L6.97846 2.90108" fill="white"/>
<path d="M7.27801 3.19276L6.96982 2.98125L7.07892 2.83147" fill="white"/>
<path d="M6.8334 3.19132L7.1411 2.98315L7.02894 2.8315" fill="white"/>
<path d="M6.83396 3.1915L6.94638 2.848L7.13224 2.90288" fill="white"/>
</g>
<defs>
<clipPath id="clip0_1_4735">
<rect y="0.5" width="21" height="15" rx="3" fill="white"/>
</clipPath>
</defs>
</svg>
