<svg width="28" height="28" viewBox="0 0 28 28" fill="none" xmlns="http://www.w3.org/2000/svg">
<path d="M2.33337 9.33334C2.33337 5.46735 5.46738 2.33334 9.33337 2.33334H18.6667C22.5327 2.33334 25.6667 5.46735 25.6667 9.33334V18.6667C25.6667 22.5327 22.5327 25.6667 18.6667 25.6667H9.33337C5.46738 25.6667 2.33337 22.5327 2.33337 18.6667V9.33334Z" fill="#F1CC06"/>
<path d="M11.5208 18.2C12.1041 18.8222 12.9791 18.8222 13.5625 18.2L19.3958 11.9778C19.9791 11.3556 19.9791 10.4222 19.3958 9.80001C18.8125 9.17779 17.9375 9.17779 17.3541 9.80001L12.5416 14.7778L10.6458 12.7556C10.0625 12.1333 9.18746 12.1333 8.60413 12.7556C8.02079 13.3778 8.02079 14.3111 8.60413 14.9333L11.5208 18.2Z" fill="#14161B"/>
</svg>
