<svg width="208" height="103" viewBox="0 0 208 103" fill="none" xmlns="http://www.w3.org/2000/svg">
<path d="M79.2175 82.6733C74.3921 82.6733 70.0436 81.6914 66.172 79.7276C62.3565 77.7076 59.3547 74.9302 57.1664 71.3953C55.0342 67.8604 53.9682 63.8485 53.9682 59.3598C53.9682 54.871 55.0342 50.8592 57.1664 47.3243C59.3547 43.7894 62.3565 41.04 66.172 39.0762C70.0436 37.0562 74.3921 36.0462 79.2175 36.0462C83.9868 36.0462 88.1389 37.0562 91.6738 39.0762C95.2648 41.04 97.8739 43.8735 99.5011 47.5768L89.3172 53.0475C86.9606 48.8953 83.566 46.8193 79.1333 46.8193C75.7106 46.8193 72.8771 47.9415 70.6327 50.1859C68.3883 52.4302 67.2661 55.4882 67.2661 59.3598C67.2661 63.2313 68.3883 66.2893 70.6327 68.5337C72.8771 70.7781 75.7106 71.9003 79.1333 71.9003C83.6221 71.9003 87.0167 69.8242 89.3172 65.6721L99.5011 71.227C97.8739 74.818 95.2648 77.6235 91.6738 79.6434C88.1389 81.6633 83.9868 82.6733 79.2175 82.6733ZM134.254 36.0462C139.865 36.0462 144.382 37.7295 147.804 41.0961C151.283 44.4627 153.022 49.4564 153.022 56.0774V82H139.893V58.0973C139.893 54.5063 139.107 51.8411 137.536 50.1017C135.965 48.3062 133.693 47.4084 130.719 47.4084C127.408 47.4084 124.771 48.4465 122.807 50.5225C120.844 52.5425 119.862 55.5724 119.862 59.6123V82H106.732V19.55H119.862V41.4328C121.601 39.6934 123.705 38.3748 126.174 37.477C128.643 36.5232 131.336 36.0462 134.254 36.0462Z" fill="white"/>
<path d="M33.3347 70.6771C31.5397 71.3504 29.4641 71.6871 27.1081 71.6871C26.3192 71.6871 25.5619 71.6476 24.8362 71.5686V82.1592C25.4716 82.1915 26.1167 82.2076 26.7715 82.2076C34.9615 82.2076 41.1882 79.7669 45.4515 74.8853L38.4675 67.3105C36.8968 68.8255 35.1859 69.9477 33.3347 70.6771Z" fill="white"/>
<path d="M36.9529 38.358C33.4189 36.5064 29.4921 35.5806 25.1728 35.5806V45.512C27.8654 45.512 30.1653 46.2133 32.0726 47.6161C33.9798 49.0188 35.242 50.8985 35.859 53.2551L24.8362 55.4013V57.8705V63.0651V65.5343L48.5648 60.9425V58.4733C48.5648 53.7601 47.499 49.6921 45.3673 46.2694C43.2918 42.7906 40.487 40.1535 36.9529 38.358Z" fill="white"/>
<path d="M170.304 79.2619C174.118 81.2257 178.409 82.2076 183.178 82.2076V71.4346C179.812 71.4346 177.035 70.3124 174.847 68.068C172.66 65.7675 171.566 62.7095 171.566 58.8941C171.566 55.0786 172.66 52.0487 174.847 49.8043C177.035 47.5039 179.812 46.3536 183.178 46.3536V35.5806C178.409 35.5806 174.118 36.5905 170.304 38.6105C166.545 40.5743 163.6 43.3237 161.468 46.8586C159.337 50.3935 158.271 54.4053 158.271 58.8941C158.271 63.3829 159.337 67.3947 161.468 70.9296C163.6 74.4645 166.545 77.2419 170.304 79.2619Z" fill="white"/>
<path d="M204.802 46.8585C202.671 43.3236 199.726 40.5742 195.967 38.6104L191.424 49.8042C193.611 52.0486 194.705 55.0785 194.705 58.894C194.705 62.7094 193.611 65.7674 191.424 68.0679L195.967 79.2618C199.726 77.2418 202.671 74.4644 204.802 70.9295C206.934 67.3946 208 63.3827 208 58.894C208 54.4052 206.934 50.3934 204.802 46.8585Z" fill="#F1CC06"/>
<path d="M3.19753 46.8233C5.32917 43.2884 8.27421 40.539 12.0326 38.5752L16.5764 49.7691C14.3887 52.0134 13.2948 55.0434 13.2948 58.8588C13.2948 62.6743 14.3887 65.7322 16.5764 68.0327L12.0326 79.2266C8.27421 77.2066 5.32917 74.4292 3.19753 70.8943C1.06588 67.3594 5.72205e-05 63.3476 5.72205e-05 58.8588C5.72205e-05 54.37 1.06588 50.3582 3.19753 46.8233Z" fill="#F1CC06"/>
</svg>
